<?xml version="1.0" encoding="UTF-8"?>
<svg xmlns="http://www.w3.org/2000/svg" viewBox="0 0 345 141">
  <defs>
    <style>
      .cls-1 {
        stroke-dasharray: 10.74 10.74;
      }

      .cls-1, .cls-2, .cls-3, .cls-4, .cls-5, .cls-6, .cls-7, .cls-8, .cls-9 {
        fill: none;
        stroke: #000;
        stroke-miterlimit: 10;
        stroke-width: 2px;
      }

      .cls-2 {
        stroke-dasharray: 13.21 13.21;
      }

      .cls-3 {
        stroke-dasharray: 13.21 13.21;
      }

      .cls-4 {
        stroke-dasharray: 13.21 13.21;
      }

      .cls-5 {
        stroke-dasharray: 13.21 13.21;
      }

      .cls-6 {
        stroke-dasharray: 13.21 13.21;
      }

      .cls-7 {
        stroke-dasharray: 13.21 13.21;
      }

      .cls-10 {
        fill: #fff;
      }

      .cls-8 {
        stroke-dasharray: 13.21 13.21;
      }

      .cls-11 {
        fill: #634e42;
      }
    </style>
  </defs>
  <g id="Layer_1" data-name="Layer 1">
    <rect class="cls-10" x="-512" y="-21" width="1366" height="768"/>
  </g>
  <g id="Layer_2" data-name="Layer 2">
    <rect class="cls-11" x="-17" y="-6" width="380" height="157"/>
    <g>
      <path d="M27.85,107.52c4.31-.96,7.28-4.73,7.28-8.98,0-5.9-4.41-9.46-13.01-9.46h-14.08v37.19c3.72-.16,6.85-.16,10.62-.1v-14.56h2.61c2.23,0,3.24,1.33,3.24,3.51v11.05c3.77-.06,6.9-.06,10.62.1v-10.62c0-4.47-1.91-7.49-7.28-8.13ZM21.32,104.44h-2.66v-7.39h2.66c1.97,0,3.13,1.33,3.13,3.72s-1.32,3.67-3.13,3.67Z"/>
      <path d="M56.97,89.08h-3.3c-7.97,0-12.16,4.25-12.16,12.33v12.54c0,8.07,4.19,12.32,12.16,12.32h3.3c8.02,0,12.27-4.3,12.27-12.32v-12.54c0-8.02-4.25-12.33-12.27-12.33ZM58.4,114.64c0,2.44-1.01,3.66-3.03,3.66s-3.03-1.22-3.03-3.66v-13.92c0-2.45,1.01-3.67,3.03-3.67s3.03,1.22,3.03,3.67v13.92Z"/>
      <path d="M73.91,89.08v7.97h8.18v29.22c3.56-.16,7.07-.16,10.63-.1v-29.12h8.18v-7.97h-26.99Z"/>
      <path d="M106.05,89.08v7.97h8.18v29.22c3.56-.16,7.07-.16,10.63-.1v-29.12h8.18v-7.97h-26.99Z"/>
      <path d="M162.31,97.05v-7.97h-23.59v37.19h23.59v-7.97h-12.96v-6.9h10.94v-7.44h-10.94v-6.91h12.96Z"/>
      <path d="M187.76,89.19v14.72h-.27l-7.44-14.72c-2.65.11-5.04.05-10.99-.11v37.19c3.08-.1,5.52-.16,8.5-.1v-18.86h.26l10.47,18.86c2.97-.06,5.05,0,7.97.1v-37.19c-4.15.16-6.43.22-8.5.11Z"/>
      <path d="M223.14,112.41c0,3.93-1.7,5.89-4.52,5.89-3.13,0-4.57-1.7-4.57-5.31v-10.62c0-3.67,1.44-5.32,4.57-5.32s4.52,2.23,4.52,6.48c2.12-.16,3.88-.1,8.5.11,0-9.67-3.93-14.56-11.9-14.56h-4.94c-5.53,0-9.82,3.63-11.15,8.87-.28,1.1-.43,2.28-.43,3.51v12.43c0,7.07,4.88,12.38,11.58,12.38h4.94c7.81,0,11.9-4.89,11.9-13.97-4.62.21-6.38.27-8.5.11Z"/>
      <path d="M252.89,89.08h-3.3c-7.96,0-12.16,4.25-12.16,12.33v12.54c0,8.07,4.2,12.32,12.16,12.32h3.3c8.02,0,12.27-4.3,12.27-12.32v-12.54c0-8.02-4.25-12.33-12.27-12.33ZM254.32,114.64c0,2.44-1.01,3.66-3.03,3.66s-3.02-1.22-3.02-3.66v-13.92c0-2.45,1.01-3.67,3.02-3.67s3.03,1.22,3.03,3.67v13.92Z"/>
      <path d="M291.93,107.52c4.31-.96,7.28-4.73,7.28-8.98,0-2.03-.52-3.78-1.55-5.21-1.98-2.72-5.82-4.25-11.46-4.25h-14.08v37.19c3.72-.16,6.85-.16,10.62-.1v-14.56h2.61c2.23,0,3.24,1.33,3.24,3.51v11.05c3.77-.06,6.9-.06,10.62.1v-10.62c0-4.47-1.91-7.49-7.28-8.13ZM285.4,104.44h-2.66v-7.39h2.66c1.22,0,2.14.52,2.66,1.49.31.59.47,1.34.47,2.23,0,2.34-1.32,3.67-3.13,3.67Z"/>
      <path d="M329.86,97.05v-7.97h-23.58v37.19h23.58v-7.97h-12.96v-6.9h10.95v-7.44h-10.95v-6.91h12.96Z"/>
    </g>
    <g>
      <line class="cls-9" x1="288.06" y1="98.54" x2="296.85" y2="93.77"/>
      <line class="cls-1" x1="306.29" y1="88.64" x2="320.45" y2="80.95"/>
      <polyline class="cls-9" points="325.17 78.39 333.96 73.62 324.05 74.92"/>
      <line class="cls-6" x1="310.95" y1="76.65" x2="291.31" y2="79.23"/>
      <polyline class="cls-9" points="284.76 80.1 274.85 81.4 279.16 72.37"/>
      <line class="cls-8" x1="284.84" y1="60.45" x2="293.37" y2="42.57"/>
      <polyline class="cls-9" points="296.22 36.61 300.52 27.58 293.27 34.46"/>
      <line class="cls-2" x1="283.69" y1="43.55" x2="269.31" y2="57.19"/>
      <polyline class="cls-9" points="264.52 61.74 257.27 68.62 255.45 58.79"/>
      <line class="cls-7" x1="253.04" y1="45.8" x2="249.43" y2="26.32"/>
      <polyline class="cls-9" points="248.22 19.83 246.4 10 244.58 19.83"/>
      <line class="cls-7" x1="242.17" y1="32.82" x2="238.56" y2="52.3"/>
      <polyline class="cls-9" points="237.35 58.79 235.53 68.62 228.28 61.74"/>
      <line class="cls-5" x1="218.7" y1="52.65" x2="204.33" y2="39.01"/>
      <polyline class="cls-9" points="199.54 34.46 192.29 27.58 196.59 36.61"/>
      <line class="cls-3" x1="202.28" y1="48.53" x2="210.8" y2="66.41"/>
      <polyline class="cls-9" points="213.65 72.37 217.95 81.4 208.04 80.1"/>
      <line class="cls-6" x1="194.94" y1="78.37" x2="175.3" y2="75.79"/>
      <polyline class="cls-9" points="168.75 74.92 158.84 73.62 167.63 78.39"/>
      <polyline class="cls-4" points="179.23 84.69 187.76 89.32 196.26 93.94 196.64 94.15"/>
      <polyline class="cls-9" points="202.44 97.3 203.65 97.95 211.23 102.07"/>
    </g>
  </g>
</svg>